# xmcd
#
# Track frame offsets:
# 150
# 11653
# 19813
# 27872
# 34555
# 45077
# 55478
# 65661
# 74720
# 88847
#
# Disc length: 1353 seconds
#
#
# Revision: 0
# Processed by: cddbd v1.4PL0 Copyright (c) Steve Scherf et al.
# Submitted via: FreeRIP 2.00 
#
DISCID=8205470a
DTITLE=Johnny Cash - The Heart Of Johnny Cash
DYEAR=1900
DGENRE=Country
TTITLE0=I Walk The Line
TTITLE1=Lumberjack
TTITLE2=Five Feet High And Rising
TTITLE3=I Got Stripes
TTITLE4=Green, Green Grass Of Home
TTITLE5=Why Do You Punish Me (For Loving You)
TTITLE6=Frankie's Man, Johnny
TTITLE7=A Certain Kinda Hurtin'
TTITLE8=Mean As Hell
TTITLE9=Locomotive Man
EXTD=Columbia
EXTT0=
EXTT1=
EXTT2=
EXTT3=
EXTT4=
EXTT5=
EXTT6=
EXTT7=
EXTT8=
EXTT9=
PLAYORDER=
